<?xml version="1.0" encoding="UTF-8" standalone="no"?>
<!DOCTYPE svg PUBLIC "-//W3C//DTD SVG 1.1//EN"
 "http://www.w3.org/Graphics/SVG/1.1/DTD/svg11.dtd">
<!-- Generated by graphviz version 2.40.1 (20161225.0304)
 -->
<!-- Title: %3 Pages: 1 -->
<svg width="348pt" height="404pt"
 viewBox="0.00 0.00 347.89 404.00" xmlns="http://www.w3.org/2000/svg" xmlns:xlink="http://www.w3.org/1999/xlink">
<g id="graph0" class="graph" transform="scale(1 1) rotate(0) translate(4 400)">
<title>%3</title>
<polygon fill="#ffffff" stroke="transparent" points="-4,4 -4,-400 343.8858,-400 343.8858,4 -4,4"/>
<!-- 0 (expr) -->
<g id="node1" class="node">
<title>0 (expr)</title>
<ellipse fill="none" stroke="#000000" cx="96.2439" cy="-90" rx="38.9931" ry="18"/>
<text text-anchor="middle" x="96.2439" y="-86.3" font-family="Times,serif" font-size="14.00" fill="#000000">0 (expr)</text>
</g>
<!-- 1 (VARNAME) -->
<g id="node2" class="node">
<title>1 (VARNAME)</title>
<ellipse fill="none" stroke="#000000" cx="68.2439" cy="-18" rx="68.4888" ry="18"/>
<text text-anchor="middle" x="68.2439" y="-14.3" font-family="Times,serif" font-size="14.00" fill="#000000">1 (VARNAME)</text>
</g>
<!-- 0 (expr)&#45;&gt;1 (VARNAME) -->
<g id="edge1" class="edge">
<title>0 (expr)&#45;&gt;1 (VARNAME)</title>
<path fill="none" stroke="#000000" d="M89.3226,-72.2022C86.1829,-64.1287 82.3986,-54.3976 78.9081,-45.422"/>
<polygon fill="#000000" stroke="#000000" points="82.1667,-44.1446 75.2802,-36.0931 75.6427,-46.6818 82.1667,-44.1446"/>
</g>
<!-- 2 (expr) -->
<g id="node3" class="node">
<title>2 (expr)</title>
<ellipse fill="none" stroke="#000000" cx="206.2439" cy="-90" rx="38.9931" ry="18"/>
<text text-anchor="middle" x="206.2439" y="-86.3" font-family="Times,serif" font-size="14.00" fill="#000000">2 (expr)</text>
</g>
<!-- 3 (INTCONST) -->
<g id="node4" class="node">
<title>3 (INTCONST)</title>
<ellipse fill="none" stroke="#000000" cx="221.2439" cy="-18" rx="66.8882" ry="18"/>
<text text-anchor="middle" x="221.2439" y="-14.3" font-family="Times,serif" font-size="14.00" fill="#000000">3 (INTCONST)</text>
</g>
<!-- 2 (expr)&#45;&gt;3 (INTCONST) -->
<g id="edge2" class="edge">
<title>2 (expr)&#45;&gt;3 (INTCONST)</title>
<path fill="none" stroke="#000000" d="M210.0291,-71.8314C211.6333,-64.131 213.541,-54.9743 215.3238,-46.4166"/>
<polygon fill="#000000" stroke="#000000" points="218.7947,-46.9169 217.4078,-36.4133 211.9418,-45.4892 218.7947,-46.9169"/>
</g>
<!-- 4 (expr) -->
<g id="node5" class="node">
<title>4 (expr)</title>
<ellipse fill="none" stroke="#000000" cx="206.2439" cy="-162" rx="38.9931" ry="18"/>
<text text-anchor="middle" x="206.2439" y="-158.3" font-family="Times,serif" font-size="14.00" fill="#000000">4 (expr)</text>
</g>
<!-- 4 (expr)&#45;&gt;0 (expr) -->
<g id="edge3" class="edge">
<title>4 (expr)&#45;&gt;0 (expr)</title>
<path fill="none" stroke="#000000" d="M183.7184,-147.256C167.4054,-136.5784 145.1544,-122.0141 127.1768,-110.2469"/>
<polygon fill="#000000" stroke="#000000" points="129.0233,-107.2725 118.7394,-104.7243 125.1896,-113.1294 129.0233,-107.2725"/>
</g>
<!-- 4 (expr)&#45;&gt;2 (expr) -->
<g id="edge4" class="edge">
<title>4 (expr)&#45;&gt;2 (expr)</title>
<path fill="none" stroke="#000000" d="M206.2439,-143.8314C206.2439,-136.131 206.2439,-126.9743 206.2439,-118.4166"/>
<polygon fill="#000000" stroke="#000000" points="209.744,-118.4132 206.2439,-108.4133 202.744,-118.4133 209.744,-118.4132"/>
</g>
<!-- 5 (=) -->
<g id="node6" class="node">
<title>5 (=)</title>
<ellipse fill="none" stroke="#000000" cx="292.2439" cy="-90" rx="28.6953" ry="18"/>
<text text-anchor="middle" x="292.2439" y="-86.3" font-family="Times,serif" font-size="14.00" fill="#000000">5 (=)</text>
</g>
<!-- 4 (expr)&#45;&gt;5 (=) -->
<g id="edge5" class="edge">
<title>4 (expr)&#45;&gt;5 (=)</title>
<path fill="none" stroke="#000000" d="M225.3301,-146.0209C237.6241,-135.7283 253.7419,-122.2342 267.0782,-111.069"/>
<polygon fill="#000000" stroke="#000000" points="269.5426,-113.5705 274.9634,-104.4674 265.049,-108.2032 269.5426,-113.5705"/>
</g>
<!-- 6 (stmt) -->
<g id="node7" class="node">
<title>6 (stmt)</title>
<ellipse fill="none" stroke="#000000" cx="248.2439" cy="-234" rx="38.9931" ry="18"/>
<text text-anchor="middle" x="248.2439" y="-230.3" font-family="Times,serif" font-size="14.00" fill="#000000">6 (stmt)</text>
</g>
<!-- 6 (stmt)&#45;&gt;4 (expr) -->
<g id="edge6" class="edge">
<title>6 (stmt)&#45;&gt;4 (expr)</title>
<path fill="none" stroke="#000000" d="M238.0769,-216.5708C233.1095,-208.0553 227.0286,-197.6308 221.5173,-188.183"/>
<polygon fill="#000000" stroke="#000000" points="224.5249,-186.3925 216.4629,-179.5182 218.4784,-189.9196 224.5249,-186.3925"/>
</g>
<!-- 7 (;) -->
<g id="node8" class="node">
<title>7 (;)</title>
<ellipse fill="none" stroke="#000000" cx="290.2439" cy="-162" rx="27" ry="18"/>
<text text-anchor="middle" x="290.2439" y="-158.3" font-family="Times,serif" font-size="14.00" fill="#000000">7 (;)</text>
</g>
<!-- 6 (stmt)&#45;&gt;7 (;) -->
<g id="edge7" class="edge">
<title>6 (stmt)&#45;&gt;7 (;)</title>
<path fill="none" stroke="#000000" d="M258.411,-216.5708C263.4151,-207.9922 269.5495,-197.4762 275.0929,-187.9732"/>
<polygon fill="#000000" stroke="#000000" points="278.155,-189.6701 280.1705,-179.2687 272.1086,-186.1429 278.155,-189.6701"/>
</g>
<!-- 8 (main_stmt) -->
<g id="node9" class="node">
<title>8 (main_stmt)</title>
<ellipse fill="none" stroke="#000000" cx="248.2439" cy="-306" rx="61.99" ry="18"/>
<text text-anchor="middle" x="248.2439" y="-302.3" font-family="Times,serif" font-size="14.00" fill="#000000">8 (main_stmt)</text>
</g>
<!-- 8 (main_stmt)&#45;&gt;6 (stmt) -->
<g id="edge8" class="edge">
<title>8 (main_stmt)&#45;&gt;6 (stmt)</title>
<path fill="none" stroke="#000000" d="M248.2439,-287.8314C248.2439,-280.131 248.2439,-270.9743 248.2439,-262.4166"/>
<polygon fill="#000000" stroke="#000000" points="251.744,-262.4132 248.2439,-252.4133 244.744,-262.4133 251.744,-262.4132"/>
</g>
<!-- 9 (main_stmt_tag_list) -->
<g id="node10" class="node">
<title>9 (main_stmt_tag_list)</title>
<ellipse fill="none" stroke="#000000" cx="248.2439" cy="-378" rx="91.784" ry="18"/>
<text text-anchor="middle" x="248.2439" y="-374.3" font-family="Times,serif" font-size="14.00" fill="#000000">9 (main_stmt_tag_list)</text>
</g>
<!-- 9 (main_stmt_tag_list)&#45;&gt;8 (main_stmt) -->
<g id="edge9" class="edge">
<title>9 (main_stmt_tag_list)&#45;&gt;8 (main_stmt)</title>
<path fill="none" stroke="#000000" d="M248.2439,-359.8314C248.2439,-352.131 248.2439,-342.9743 248.2439,-334.4166"/>
<polygon fill="#000000" stroke="#000000" points="251.744,-334.4132 248.2439,-324.4133 244.744,-334.4133 251.744,-334.4132"/>
</g>
</g>
</svg>
